<svg xmlns="http://www.w3.org/2000/svg"  viewBox="0 0 64 64" width="512px" height="512px"><path fill="#330c66" d="M63,61a2.006,2.006,0,0,1-2,2H3a2.006,2.006,0,0,1-2-2V59H63Z"/><path fill="#6034a7" d="M63,59H1v2a1.975,1.975,0,0,0,.279,1A2,2,0,0,1,3,61H61a2,2,0,0,1,1.721,1A1.975,1.975,0,0,0,63,61Z"/><path fill="#6034a7" d="M61,21V59H3V21a2.006,2.006,0,0,1,2-2H59A2.006,2.006,0,0,1,61,21ZM57,53V25a2.006,2.006,0,0,0-2-2H9a2.006,2.006,0,0,0-2,2V53a2.006,2.006,0,0,0,2,2H55A2.006,2.006,0,0,0,57,53Z"/><path fill="#29fede" d="M57,25V53a2.006,2.006,0,0,1-2,2H9a2.006,2.006,0,0,1-2-2V25a2.006,2.006,0,0,1,2-2H55A2.006,2.006,0,0,1,57,25Z"/><path fill="#b88cde" d="M32.49,29.99c-.16.01-.32.01-.49.01s-.33,0-.49-.01a9.618,9.618,0,0,1-5.87-2.63A8.954,8.954,0,0,1,23,21V15.68a16.452,16.452,0,0,1,18,0V21A9.013,9.013,0,0,1,32.49,29.99Z"/><path fill="#391863" d="M23,15.68V21a8.954,8.954,0,0,0,2.64,6.36,9.618,9.618,0,0,0,5.87,2.63,15.72,15.72,0,0,1-5.51-1C19,26.28,19,19,19,19a17.7,17.7,0,0,1,3.5-3C22.66,15.89,22.83,15.78,23,15.68Z"/><path fill="#391863" d="M41,21V15.68l.15.09A17.883,17.883,0,0,1,45,19s0,7.28-7,9.99a15.72,15.72,0,0,1-5.51,1A9.013,9.013,0,0,0,41,21Z"/><path fill="#7341b4" d="M23,15.68c-.17.1-.34.21-.5.32A17.7,17.7,0,0,0,19,19l1.09-8.04a10.228,10.228,0,0,1,3.81-7.3A12.859,12.859,0,0,1,32,1c6.22,0,11.4,3.77,11.91,9.96L45,19a17.883,17.883,0,0,0-3.85-3.23L41,15.68a16.452,16.452,0,0,0-18,0Z"/><path fill="#83bbf6" d="M32,49H28V46.32c-2.36-1.13-3-1.53-3-4.32a7,7,0,0,1,14,0c0,2.79-.64,3.19-3,4.32V49Z"/><path fill="#5c2e96" d="M20,44V55H14V38.47a3.984,3.984,0,0,1,3.39-3.95L20,38Z"/><path fill="#5c2e96" d="M50,38.47V55H44V38l2.61-3.48A3.984,3.984,0,0,1,50,38.47Z"/><path fill="#3f0e7d" d="M26,28.99a15.72,15.72,0,0,0,5.51,1c.16.01.32.01.49.01s.33,0,.49-.01a15.72,15.72,0,0,0,5.51-1V29l8.57,5.51a.06.06,0,0,1,.04.01L44,38V55H20V38l-2.61-3.48a.06.06,0,0,1,.04-.01L26,29ZM39,42a7,7,0,0,0-14,0c0,2.79.64,3.19,3,4.32V49h8V46.32C38.36,45.19,39,44.79,39,42Z"/><path fill="#281145" d="M23.43,23.75a6.7,6.7,0,0,1-.79-.9,2,2,0,0,0-2.95-.38A11.407,11.407,0,0,1,19,19a17.7,17.7,0,0,1,3.5-3c.16-.11.33-.22.5-.32V21A8.942,8.942,0,0,0,23.43,23.75Z"/><path fill="#281145" d="M45,19a11.407,11.407,0,0,1-.69,3.47,2,2,0,0,0-2.95.38,6.7,6.7,0,0,1-.79.9A8.942,8.942,0,0,0,41,21V15.68l.15.09A17.883,17.883,0,0,1,45,19Z"/><path fill="#5c2e96" d="M45,19a17.883,17.883,0,0,0-3.85-3.23L41,15.68a16.452,16.452,0,0,0-18,0c-.17.1-.34.21-.5.32A17.7,17.7,0,0,0,19,19l1.09-8.04a10.228,10.228,0,0,1,3.81-7.3,11.8,11.8,0,0,1,4.74-2.27,4.6,4.6,0,0,0-2.56,2.99,4.721,4.721,0,0,0-.17,1.22,4.55,4.55,0,0,0,4.94,4.55,23.7,23.7,0,0,1,13.4,3.33Z"/><path fill="#58327d" d="M32,18a16.918,16.918,0,0,1,9,2.68v-5A16.918,16.918,0,0,0,32,13a16.254,16.254,0,0,0-6,1.164v0l-.052.023c-.484.193-.942.4-1.381.623-.124.062-.243.125-.364.189-.422.222-.829.451-1.2.685V21a8.954,8.954,0,0,0,2.64,6.36,9.618,9.618,0,0,0,5.87,2.63c.16.01.32.01.49.01s.33,0,.49-.01a4.534,4.534,0,0,0,.53-.05A7.992,7.992,0,0,1,26,22h0a3.769,3.769,0,0,1,3.028-3.719A15.9,15.9,0,0,1,32,18Z"/><path fill="#50218a" d="M15.357,35.476,17.2,37.933a4,4,0,0,1,.8,2.4V50a2,2,0,0,1-4,0v5h6V38l-2.61-3.48A3.935,3.935,0,0,0,15.357,35.476Z"/><path fill="#50218a" d="M48,52a2,2,0,0,1-2-2V40.333a4,4,0,0,1,.8-2.4l1.843-2.457a3.935,3.935,0,0,0-2.033-.956L44,38V55h6V50A2,2,0,0,1,48,52Z"/><path fill="#311066" d="M23,40V36.562a5.123,5.123,0,0,1,6.366-4.971l.334.084a9.581,9.581,0,0,0,2.877.279,25.253,25.253,0,0,0,7.555-1.583L38,29v-.01a15.72,15.72,0,0,1-5.51,1c-.16.01-.32.01-.49.01s-.33,0-.49-.01a15.72,15.72,0,0,1-5.51-1V29l-8.57,5.51a.06.06,0,0,0-.04.01L20,38V55H44V52H35A12,12,0,0,1,23,40Z"/><rect width="58" height="2" x="3" y="57" fill="#3f0e7d"/><rect width="4" height="24" x="3" y="27" fill="#7341b4" rx="2"/><rect width="4" height="24" x="57" y="27" fill="#7341b4" rx="2"/><rect width="40" height="2" x="12" y="59" fill="#7341b4" rx="1"/><path fill="#3f0e7d" d="M19.89,23h-5A11.669,11.669,0,0,1,14,19h5A11.669,11.669,0,0,0,19.89,23Z"/><path fill="#00dedd" d="M26,28.99V29l-8.57,5.51a.06.06,0,0,0-.04.01A3.984,3.984,0,0,0,14,38.47V55H9V38.47a3.984,3.984,0,0,1,3.39-3.95.06.06,0,0,1,.04-.01L21,29v-.01A10.447,10.447,0,0,1,14.89,23h5A10.447,10.447,0,0,0,26,28.99Z"/><path fill="#8cffe6" d="M54,33a2,2,0,0,1-2-2V28H49a2,2,0,0,1,0-4h4a3,3,0,0,1,3,3v4A2,2,0,0,1,54,33Z"/><path fill="#8cffe6" d="M54,40a2,2,0,0,1-2-2V36a2,2,0,0,1,4,0v2A2,2,0,0,1,54,40Z"/><path d="M4,21a1,1,0,0,1,1-1H17V18H5a3,3,0,0,0-3,3V52H4Z"/><rect width="2" height="2" x="2" y="54"/><rect width="2" height="2" x="47" y="18"/><path d="M63,58H62V21a3,3,0,0,0-3-3H51v2h8a1,1,0,0,1,1,1V58H1a1,1,0,0,0-1,1v2a3,3,0,0,0,3,3H61a3,3,0,0,0,3-3V59A1,1,0,0,0,63,58Zm-1,3a1,1,0,0,1-1,1H3a1,1,0,0,1-1-1V60H62Z"/><path d="M13,38.469V54H9a1,1,0,0,1-1-1V25a1,1,0,0,1,1-1h8V22H9a3,3,0,0,0-3,3V53a3,3,0,0,0,3,3H55a3,3,0,0,0,3-3V25a3,3,0,0,0-3-3H47v2h8a1,1,0,0,1,1,1V53a1,1,0,0,1-1,1H51V38.469a5.027,5.027,0,0,0-4.066-4.912l-6.886-4.429C45.909,25.777,46,19.09,46,19c0,0,0-.088-.009-.134L44.91,10.879C44.376,4.474,39.067,0,32,0S19.624,4.474,19.1,10.828l-1.086,8.038C18,18.912,18,19,18,19c0,.09.091,6.777,5.952,10.128l-6.886,4.429A5.027,5.027,0,0,0,13,38.469Zm8.083-27.424C21.534,5.635,25.921,2,32,2s10.466,3.635,10.922,9.1l.706,5.221A18.558,18.558,0,0,0,32,12a18.553,18.553,0,0,0-11.629,4.318Zm2.579,15.463a10.313,10.313,0,0,1-3.645-7.141C21.086,18.24,25.539,14,32,14s10.914,4.24,11.983,5.367a10.313,10.313,0,0,1-3.645,7.141A9.938,9.938,0,0,0,42,21V18H40v3a8,8,0,0,1-16,0V18H22v3A9.938,9.938,0,0,0,23.662,26.508ZM17.975,35.35,26.133,30.1A17.881,17.881,0,0,0,32,31a17.881,17.881,0,0,0,5.867-.9l8.158,5.247a.992.992,0,0,0,.4.149A3.015,3.015,0,0,1,49,38.469V54H45V44H43V54H21V44H19V54H15V38.469a3.015,3.015,0,0,1,2.576-2.97A.992.992,0,0,0,17.975,35.35Z"/><path d="M27,46.943V49a1,1,0,0,0,1,1h8a1,1,0,0,0,1-1V46.943c2.209-1.106,3-1.955,3-4.943a8,8,0,0,0-16,0C24,44.988,24.791,45.837,27,46.943ZM32,36a6.006,6.006,0,0,1,6,6c0,2.258-.277,2.39-2.43,3.415a1,1,0,0,0-.57.9V48H33V46H31v2H29V46.317a1,1,0,0,0-.57-.9C26.277,44.39,26,44.258,26,42A6.006,6.006,0,0,1,32,36Z"/><rect width="3" height="2" x="28" y="41"/><rect width="3" height="2" x="33" y="41"/></svg>
