<?xml version="1.0" encoding="utf-8"?>
<svg width="60px" height="60px" viewBox="0 0 60 60" version="1.1" xmlns:xlink="http://www.w3.org/1999/xlink" xmlns="http://www.w3.org/2000/svg">
  <defs>
    <path d="M0 0L60 0L60 60L0 60L0 0Z" id="path_1" />
    <path d="M47.5862 23.7933C47.5862 36.9339 36.9337 47.5864 23.7931 47.5864C10.6525 47.5864 1.60791e-15 36.9339 0 23.7933C-1.60791e-15 10.6528 10.6525 0.000227188 23.7931 0.000227188C30.1119 -0.0274264 36.1798 2.47046 40.6479 6.93854C45.116 11.4066 47.6139 17.4746 47.5862 23.7933L47.5862 23.7933Z" id="path_2" />
    <clipPath id="clip_1">
      <use xlink:href="#path_2" />
    </clipPath>
    <clipPath id="mask_1">
      <use xlink:href="#path_1" />
    </clipPath>
  </defs>
  <g id="svg">
    <path d="M0 0L60 0L60 60L0 60L0 0Z" id="Background" fill="#FFFFFF" fill-opacity="0" fill-rule="evenodd" stroke="none" />
    <g clip-path="url(#mask_1)">
      <g id="Group" transform="translate(-5.972234E-15 -0.00022718805)">
        <g id="Shape">
          <use stroke="none" fill="#4FC0E8" fill-opacity="0.49803922" xlink:href="#path_2" />
          <g clip-path="url(#clip_1)">
            <use xlink:href="#path_2" fill="none" stroke="#000000" stroke-width="2" />
          </g>
        </g>
        <path d="M47.1931 42.8071L42.8069 47.1933L38.2759 42.6623C39.9231 41.3979 41.3977 39.9233 42.6621 38.2761L47.1931 42.8071L47.1931 42.8071Z" id="Shape" fill="#937661" stroke="none" />
        <path d="M59.0897 59.0899C58.5086 59.6726 57.7195 60.0001 56.8965 60.0001C56.0736 60.0001 55.2845 59.6726 54.7034 59.0899L46.469 50.8554L50.8552 46.4692L59.0897 54.7037C60.2998 55.9153 60.2998 57.8782 59.0897 59.0899L59.0897 59.0899Z" id="Shape" fill="#937661" stroke="none" />
        <path d="M42.8071 47.1933L47.1931 42.8073L50.855 46.4692L46.4689 50.8552L42.8071 47.1933Z" id="Rectangle" fill="#CAD0D7" fill-rule="evenodd" stroke="none" />
        <g id="Group" transform="translate(3.541706 4.141958)">
          <path d="M7.32036 32.0652C5.32071 32.0652 3.69967 30.4441 3.69967 28.4445L3.69967 23.2721C3.69967 21.2724 5.32071 19.6514 7.32036 19.6514C9.32001 19.6514 10.9411 21.2724 10.9411 23.2721L10.9411 28.4445C10.9411 30.4441 9.32001 32.0652 7.32036 32.0652L7.32036 32.0652ZM7.32036 21.7203C6.46337 21.7203 5.76864 22.4151 5.76864 23.2721L5.76864 28.4445C5.76864 29.3015 6.46337 29.9962 7.32036 29.9962C8.17736 29.9962 8.87209 29.3015 8.87209 28.4445L8.87209 23.2721C8.87209 22.4151 8.17736 21.7203 7.32036 21.7203L7.32036 21.7203Z" id="Shape" fill="#5AE038" fill-rule="evenodd" stroke="none" />
          <path d="M15.5962 17.5824C13.5966 17.5824 11.9755 15.9614 11.9755 13.9617L11.9755 8.7893C11.9755 6.78965 13.5966 5.16861 15.5962 5.16861C17.5959 5.16861 19.2169 6.78965 19.2169 8.7893L19.2169 13.9617C19.2169 15.9614 17.5959 17.5824 15.5962 17.5824L15.5962 17.5824ZM15.5962 7.23758C14.7392 7.23758 14.0445 7.93231 14.0445 8.7893L14.0445 13.9617C14.0445 14.8187 14.7392 15.5134 15.5962 15.5134C16.4532 15.5134 17.1479 14.8187 17.1479 13.9617L17.1479 8.7893C17.1479 7.93231 16.4532 7.23758 15.5962 7.23758L15.5962 7.23758Z" id="Shape" fill="#5AE038" fill-rule="evenodd" stroke="none" />
          <path d="M33.1824 32.0652C31.1828 32.0652 29.5617 30.4441 29.5617 28.4445L29.5617 23.2721C29.5617 21.2724 31.1828 19.6514 33.1824 19.6514C35.1821 19.6514 36.8031 21.2724 36.8031 23.2721L36.8031 28.4445C36.8031 30.4441 35.1821 32.0652 33.1824 32.0652L33.1824 32.0652ZM33.1824 21.7203C32.3254 21.7203 31.6307 22.4151 31.6307 23.2721L31.6307 28.4445C31.6307 29.3015 32.3254 29.9962 33.1824 29.9962C34.0394 29.9962 34.7342 29.3015 34.7342 28.4445L34.7342 23.2721C34.7342 22.4151 34.0394 21.7203 33.1824 21.7203L33.1824 21.7203Z" id="Shape" fill="#5AE038" fill-rule="evenodd" stroke="none" />
          <path d="M18.1824 32.0652L14.0445 32.0652C13.4732 32.0652 13.01 31.602 13.01 31.0307C13.01 30.4594 13.4732 29.9962 14.0445 29.9962L15.079 29.9962L15.079 23.1831L14.7759 23.4862C14.37 23.8782 13.7248 23.8726 13.3257 23.4736C12.9267 23.0746 12.9211 22.4293 13.3131 22.0234L15.3821 19.9545C15.6779 19.6587 16.1228 19.5702 16.5093 19.7303C16.8958 19.8904 17.1479 20.2675 17.1479 20.6859L17.1479 29.9962L18.1824 29.9962C18.7538 29.9962 19.2169 30.4594 19.2169 31.0307C19.2169 31.602 18.7538 32.0652 18.1824 32.0652L18.1824 32.0652Z" id="Shape" fill="#5AE038" stroke="none" />
          <path d="M26.4583 17.5824L22.3204 17.5824C21.749 17.5824 21.2859 17.1193 21.2859 16.5479C21.2859 15.9766 21.749 15.5134 22.3204 15.5134L23.3548 15.5134L23.3548 8.70034L23.0517 9.00344C22.6458 9.39548 22.0006 9.38987 21.6016 8.99084C21.2025 8.5918 21.1969 7.94659 21.589 7.54068L23.6579 5.47172C23.9538 5.17595 24.3987 5.08749 24.7852 5.24757C25.1717 5.40765 25.4237 5.78476 25.4238 6.2031L25.4238 15.5134L26.4583 15.5134C27.0296 15.5134 27.4928 15.9766 27.4928 16.5479C27.4928 17.1193 27.0296 17.5824 26.4583 17.5824L26.4583 17.5824Z" id="Shape" fill="#5AE038" stroke="none" />
          <path d="M26.4583 32.0652L22.3204 32.0652C21.749 32.0652 21.2859 31.602 21.2859 31.0307C21.2859 30.4594 21.749 29.9962 22.3204 29.9962L23.3548 29.9962L23.3548 23.1831L23.0517 23.4862C22.6458 23.8782 22.0006 23.8726 21.6016 23.4736C21.2025 23.0746 21.1969 22.4293 21.589 22.0234L23.6579 19.9545C23.9538 19.6587 24.3987 19.5702 24.7852 19.7303C25.1717 19.8904 25.4237 20.2675 25.4238 20.6859L25.4238 29.9962L26.4583 29.9962C27.0296 29.9962 27.4928 30.4594 27.4928 31.0307C27.4928 31.602 27.0296 32.0652 26.4583 32.0652L26.4583 32.0652Z" id="Shape" fill="#5AE038" stroke="none" />
          <path d="M2.94347 11.3755C2.57935 11.3751 2.24223 11.1834 2.05583 10.8706C1.86943 10.5578 1.8612 10.1701 2.03416 9.84965C4.51588 5.23396 8.6567 1.732 13.6204 0.0510273C14.159 -0.124214 14.7383 0.166247 14.9202 0.702656C15.102 1.23906 14.8186 1.82196 14.2845 2.01034C9.81605 3.52435 6.08835 6.67716 3.85381 10.8324C3.67322 11.167 3.32366 11.3755 2.94347 11.3755L2.94347 11.3755Z" id="Shape" fill="#E1F9FF" stroke="none" />
          <path d="M1.03588 16.5479C0.962526 16.548 0.889368 16.5404 0.817604 16.5252C0.549237 16.4676 0.314738 16.3058 0.16573 16.0753C0.0167227 15.8448 -0.0345781 15.5645 0.0231214 15.2962C0.101742 14.9293 0.190708 14.5652 0.290018 14.2038C0.388328 13.8475 0.669242 13.5707 1.02695 13.4777C1.38465 13.3847 1.76479 13.4896 2.02419 13.7529C2.28358 14.0162 2.38281 14.3979 2.2845 14.7541C2.19554 15.0759 2.11691 15.4017 2.04554 15.7307C1.94328 16.2068 1.52283 16.5471 1.03588 16.5479L1.03588 16.5479Z" id="Shape" fill="#E1F9FF" stroke="none" />
        </g>
      </g>
    </g>
  </g>
</svg>
